<svg width="410" height="404" viewBox="0 0 410 404" fill="none" xmlns="http://www.w3.org/2000/svg">
<path d="M399.641 59.5246L215.643 388.545C211.844 395.338 201.621 395.258 197.939 388.404L10.5817 59.3662C6.53144 52.0181 12.5747 43.2665 20.6113 44.7586L205.223 79.6584C206.398 79.876 207.601 79.8737 208.776 79.6517L389.213 44.8057C397.221 43.2894 403.305 51.9108 399.3 59.2805L399.641 59.5246Z" fill="url(#paint0_linear)"/>
<path d="M292.965 1.5744L156.815 28.2552C154.563 28.6973 152.74 30.3597 152.146 32.5856L104.803 211.745C103.644 216.167 107.252 220.272 111.776 219.498L158.42 211.346C162.99 210.565 166.643 214.746 165.293 219.193L147.224 280.648C145.815 285.279 149.872 289.681 154.594 288.788L188.046 282.35C192.778 281.456 196.829 285.88 195.388 290.506L168.75 378.303C166.864 384.487 175.065 388.321 178.573 382.923L180.485 379.931L351.959 67.4479C354.458 62.8703 350.083 57.6547 345.044 58.6065L296.746 67.4423C292.063 68.3285 287.968 63.9038 289.409 59.2923L307.75 1.93212C309.167 -2.60192 304.853 -7.00571 300.151 -6.04771L292.965 1.5744Z" fill="url(#paint1_linear)"/>
<defs>
<linearGradient id="paint0_linear" x1="6.00017" y1="32.9999" x2="235" y2="344" gradientUnits="userSpaceOnUse">
<stop stop-color="#41D1FF"/>
<stop offset="1" stop-color="#BD34FE"/>
</linearGradient>
<linearGradient id="paint1_linear" x1="194.651" y1="8.81818" x2="236.076" y2="292.989" gradientUnits="userSpaceOnUse">
<stop stop-color="#FFEA83"/>
<stop offset="0.0833333" stop-color="#FFDD35"/>
<stop offset="1" stop-color="#FFA800"/>
</linearGradient>
</defs>
</svg>
